# xmcd
#
# Track frame offsets:
# 150
# 23768
# 51990
# 84491
# 92422
# 121612
# 139800
# 170886
# 191789
# 211559
# 231953
# 255591
# 274716
# 279323
#
# Disc length: 4039 seconds
#
# Revision: 1
# Processed by: cddbd v1.5.1PL0 Copyright (c) Steve Scherf et al.
# Submitted via: Axialis_AX_CDPlayer 2.6
#
DISCID=bc0fc50e
DTITLE=Rachel Z - Everlasting
DYEAR=2004
DGENRE=Jazz
TTITLE0=Here Comes The Sun
TTITLE1=Kiss From A Rose
TTITLE2=Interlude
TTITLE3=Mortal
TTITLE4=Ring Of Fire
TTITLE5=Wild Horses
TTITLE6=Black Hole Sun
TTITLE7=Fields Of Gold
TTITLE8=Kid Charlemagne
TTITLE9=One Time
TTITLE10=Tonight, Tonight
TTITLE11=Kiss Of Life
TTITLE12=Interlude
TTITLE13=Red Rain
EXTD=YEAR: 2004
EXTT0=
EXTT1=
EXTT2=
EXTT3=
EXTT4=
EXTT5=
EXTT6=
EXTT7=
EXTT8=
EXTT9=
EXTT10=
EXTT11=
EXTT12=
EXTT13=
PLAYORDER=
